inDegrees=yes
name=ik_lifting_orientations
DataType=double
version=3
OpenSimVersion=4.5-2024-01-10-34fd6af
endheader
time	pelvis_tilt	pelvis_list	pelvis_rotation	pelvis_tx	pelvis_ty	pelvis_tz	hip_flexion_r	hip_adduction_r	hip_rotation_r	knee_angle_r	knee_angle_r_beta	ankle_angle_r	subtalar_angle_r	mtp_angle_r	hip_flexion_l	hip_adduction_l	hip_rotation_l	knee_angle_l	knee_angle_l_beta	ankle_angle_l	subtalar_angle_l	mtp_angle_l	lumbar_extension	lumbar_bending	lumbar_rotation	arm_flex_r	arm_add_r	arm_rot_r	elbow_flex_r	pro_sup_r	wrist_flex_r	wrist_dev_r	arm_flex_l	arm_add_l	arm_rot_l	elbow_flex_l	pro_sup_l	wrist_flex_l	wrist_dev_l
0.6899999999999999	16.71176088439938	8.614385954413493	-137.0661670999961	0	0.9399999998679526	0	44.99258595291281	-10.70454529778855	0	59.99675571570034	1.047140927753698	-5.272990638600501	0	0	44.99258595291281	-10.70454529778855	0	59.99675571570034	1.047140927753698	-5.272990638600501	0	0	-57.63713923230597	-38.5354554214776	5.543051885106034	72.05924859543752	-5.211238043848384	17.31645412930922	5.340338186978332	2.114461960080404	0	0	0	-10.90384828981635	0	87.92738893463675	2.114461960080404	0	0
0.7	16.18912779007728	8.366686546809415	-136.7526040946215	0	0.9399999998679526	0	44.9925916621921	-10.70264557409654	0	59.99675775738601	1.047140963387835	-5.272030522695649	0	0	44.9925916621921	-10.70264557409654	0	59.99675775738601	1.047140963387835	-5.272030522695649	0	0	-59.3782465011982	-38.27719338665531	4.994234869117681	73.24238046465	-5.296193232712554	17.79634033220346	5.044786346490626	2.113329306256317	0	0	0	-10.90546329191951	0	87.92849905507407	2.113329306256317	0	0
0.71	15.87958116014219	8.165160136155201	-136.6442736323831	0	0.9399999998679526	0	44.99259657531906	-10.70101171012517	0	59.99675951288679	1.047140994027104	-5.271205212260693	0	0	44.99259657531906	-10.70101171012517	0	59.99675951288679	1.047140994027104	-5.271205212260693	0	0	-61.06194113270166	-38.38051368759705	4.217018351880303	74.54899593647856	-5.10710579450177	18.18896687673377	4.501430449413585	2.112354760917901	0	0	0	-10.9068525806156	0	87.92945421247646	2.112354760917901	0	0
0.72	15.49833349194871	7.841536493506353	-136.7533298293393	0	0.9399999998679526	0	44.99260120718543	-10.69947583265793	0	59.99676116954014	1.047141022941159	-5.270430160372457	0	0	44.99260120718543	-10.69947583265793	0	59.99676116954014	1.047141022941159	-5.270430160372457	0	0	-62.83080830952373	-38.76432607992979	3.462029235701408	75.83390645719889	-4.868048005886201	18.39194958062287	3.999229884614584	2.111435514660924	0	0	0	-10.90816354959909	0	87.93035517099254	2.111435514660924	0	0
0.73	15.33562228687539	7.72847918705534	-136.6742563698606	0	0.9399999998679526	0	44.99260619342761	-10.69782249571173	0	59.99676295109737	1.047141054035199	-5.26959613010239	0	0	44.99260619342761	-10.69782249571173	0	59.99676295109737	1.047141054035199	-5.26959613010239	0	0	-64.20780002684553	-38.91355439707446	2.763105772327066	76.96503471750687	-4.686320094503538	18.49501979552885	3.435619786647893	2.110446194390775	0	0	0	-10.90957408763979	0	87.93132480942957	2.110446194390775	0	0
0.74	15.54612104380749	7.865459297433236	-136.7620730189653	0	0.9399999998679526	0	44.99261097637395	-10.69624039965255	0	59.99676466148151	1.047141083887033	-5.268798694131708	0	0	44.99261097637395	-10.69624039965255	0	59.99676466148151	1.047141083887033	-5.268798694131708	0	0	-65.02441398203237	-39.08222938211771	2.20871899528634	77.99442391955283	-4.574077143674481	18.6549936375727	2.947959048593221	2.109496766093994	0	0	0	-10.9109282296387	0	87.93225534956949	2.109496766093994	0	0
0.75	15.68746478239701	8.000744515935249	-136.7333306014627	0	0.9399999998679526	0	44.99261554293221	-10.69473164053942	0	59.99676629411402	1.047141112381846	-5.268038680623886	0	0	44.99261554293221	-10.69473164053942	0	59.99676629411402	1.047141112381846	-5.268038680623886	0	0	-65.97331010607431	-39.01410043589046	1.564521368522766	78.9387544066181	-4.511628569752728	18.93918212256494	2.575010028159292	2.108590242926387	0	0	0	-10.91222117179434	0	87.93314383815542	2.108590242926387	0	0
0.76	15.82370255795078	8.124256911940442	-136.7015069938519	0	0.9399999998679526	0	44.99262044438679	-10.69311456000207	0	59.99676804640315	1.047141142965061	-5.267224644614664	0	0	44.99262044438679	-10.69311456000207	0	59.99676804640315	1.047141142965061	-5.267224644614664	0	0	-66.92911900805821	-38.94355122481532	0.922997524633239	79.8738841111544	-4.444841099573943	19.21939822934479	2.192756999874458	2.107617111865556	0	0	0	-10.91360919796473	0	87.93409760954104	2.107617111865556	0	0
0.77	15.7827925121391	8.17076927225243	-136.5311406335372	0	0.9399999998679526	0	44.9926251626531	-10.69155990838827	0	59.99676973290778	1.04714117240012	-5.266442532460425	0	0	44.9926251626531	-10.69155990838827	0	59.99676973290778	1.04714117240012	-5.266442532460425	0	0	-68.0561582421923	-38.82821588469341	0.2139785488739366	80.72182409083429	-4.337239738249799	19.34175530946325	1.885284077418309	2.106680279551439	0	0	0	-10.91494546546592	0	87.93501580432735	2.106680279551439	0	0
0.78	15.83977083797591	8.263119748715509	-136.4455798711075	0	0.9399999998679526	0	44.99263001545585	-10.68996322640406	0	59.99677146751856	1.047141202674789	-5.26563979868698	0	0	44.99263001545585	-10.68996322640406	0	59.99677146751856	1.047141202674789	-5.26563979868698	0	0	-68.76413386367115	-38.72624397475722	-0.241119765470312	81.34891475627279	-4.234753699482032	19.3747837836314	1.503577590726314	2.105716593774062	0	0	0	-10.91632014178542	0	87.9359603183696	2.105716593774062	0	0
0.79	15.8855655288658	8.383964623603941	-136.3768769672026	0	0.9399999998679526	0	44.99263192140722	-10.68933810167419	0	59.99677214996478	1.047141214585722	-5.265325790935795	0	0	44.99263192140722	-10.68933810167419	0	59.99677214996478	1.047141214585722	-5.265325790935795	0	0	-68.97711247782904	-38.63269356409702	-0.4061615738910873	81.57775212842913	-4.113041385248145	19.40809241173802	1.138002925211184	2.105337815748989	0	0	0	-10.91686079081047	0	87.93633156094968	2.105337815748989	0	0
0.8	15.96182057094237	8.501175113790829	-136.0902005419676	0	0.9399999998679526	0	44.99263605932916	-10.68798040832084	0	59.99677363008814	1.047141240418749	-5.264643913493348	0	0	44.99263605932916	-10.68798040832084	0	59.99677363008814	1.047141240418749	-5.264643913493348	0	0	-69.59376954221571	-38.24890578991462	-0.8941876079264555	82.00932301473857	-4.083126343327899	19.55098173542222	0.8892411698212821	2.10451571610745	0	0	0	-10.91803388097204	0	87.9371373056422	2.10451571610745	0	0
